# xmcd
#
# Track frame offsets: 
#        150
#        8227
#        20974
#        33250
#        51890
#        64825
#        79551
#        87625
#        100981
#        111158
#        126777
#        139540
#        151776
#        171798
#        184981
#
# Disc length: 2630 seconds
#
# Revision: 0
# Processed by: cddbd v1.5.2PL0 Copyright (c) Steve Scherf et al.
# Submitted via: ExactAudioCopy v0.99pb4
#
DISCID=c40a440f
DTITLE=Papas no Mamas - Matkalaukkuvirsi‰
DYEAR=2011
DGENRE=Gospel
TTITLE0=Kuulkaa keit‰ Mestari (virsi 516)
TTITLE1=P‰iv‰ vain ja hetki kerrallansa (virsi 338)
TTITLE2=Mua siipeis suojaan k‰tke (virsi 552)
TTITLE3=Nyt Herran hyvyydest‰ (virsi 330)
TTITLE4=Vaiti kaikki palvokaamme (virsi 228)
TTITLE5=Taas kukkasilla kukkulat (virsi 572)
TTITLE6=Maan sato elonaikaan (virsi 231)
TTITLE7=Millainen on el‰m‰? (virsi 598)
TTITLE8=Taivaan Is‰ suojan antaa (virsi 503)
TTITLE9=Kirkasta, oi Kristus, meille (virsi 301)
TTITLE10=Halleluja, kiitos Herran (virsi 339)
TTITLE11=Pyh‰, pyh‰, pyh‰! (virsi 134)
TTITLE12=Maan p‰‰ll‰ aina, ihminen (virsi 593)
TTITLE13=Kiitos sulle, Jumalani (virsi 341)
TTITLE14=Totuuden Henki (virsi 484)
EXTD=
EXTT0=
EXTT1=
EXTT2=
EXTT3=
EXTT4=
EXTT5=
EXTT6=
EXTT7=
EXTT8=
EXTT9=
EXTT10=
EXTT11=
EXTT12=
EXTT13=
EXTT14=
PLAYORDER=
